<?xml version="1.0" encoding="UTF-8"?>
<svg version="1.1" xmlns="http://www.w3.org/2000/svg" width="1280" height="720">
<path d="M0 0 C3.85360206 0.00952627 7.70717711 0.00137434 11.5607811 -0.00439831 C18.29890636 -0.01211287 25.03695423 -0.00881577 31.77507434 0.00192526 C41.79976722 0.01785979 51.82440679 0.0164298 61.84910853 0.01163298 C78.74361499 0.00405545 95.63808867 0.01054271 112.53258929 0.02524451 C129.31840427 0.03983199 146.1042049 0.04853446 162.89002642 0.04942969 C163.93827299 0.04949078 164.98651955 0.04955188 166.06653116 0.04961482 C170.32359157 0.0498444 174.58065198 0.05003155 178.8377124 0.05016296 C217.65421936 0.05137447 256.47070649 0.06705592 295.28720507 0.09174994 C331.68955038 0.11490164 368.0918837 0.1291974 404.49423632 0.13276557 C406.16728507 0.13293284 406.16728507 0.13293284 407.87413278 0.13310349 C412.37206231 0.13355245 416.86999184 0.13399445 421.36792137 0.13443592 C423.61094529 0.13465633 425.85396921 0.13487762 428.09699313 0.1350998 C430.33552302 0.13532117 432.57405291 0.13553994 434.8125828 0.1357561 C470.86594911 0.1393098 506.91931324 0.15078313 542.97267731 0.16356244 C553.4479266 0.16724211 563.92317574 0.17051846 574.39842543 0.1728113 C735.66694929 0.20820091 735.66694929 0.20820091 797.91400519 0.67534385 C801.13973948 0.69772764 804.36546092 0.71508226 807.59123406 0.73077801 C812.4769093 0.75519561 817.36226031 0.79376874 822.2477353 0.84413788 C823.96145667 0.85981845 825.67522745 0.8710309 827.38901082 0.87681088 C843.86448151 0.93925947 860.08065432 2.92352255 875.92880664 7.56049994 C876.97979541 7.86455756 878.03078418 8.16861517 879.11362109 8.48188666 C918.02930098 20.07706227 952.76720499 44.68581156 974.36630664 79.37299994 C974.77526171 80.01769232 975.18421679 80.66238471 975.60556445 81.32661322 C990.05171771 104.38782063 996.59431798 130.20269243 996.61630664 157.24799994 C996.61731875 158.36114569 996.61731875 158.36114569 996.61835131 159.49677924 C996.60254088 170.42518541 996.15973019 180.75123215 993.36630664 191.37299994 C993.11687304 192.38209418 993.11687304 192.38209418 992.86240039 193.41157416 C988.42293442 211.20643357 980.72308119 227.28390123 970.36630664 242.37299994 C969.63154101 243.446789 968.89677539 244.52057807 968.13974414 245.62690619 C952.44686099 267.17091588 931.93571112 283.33286838 908.36630664 295.37299994 C907.71806933 295.70670599 907.06983203 296.04041205 906.40195117 296.38423041 C883.07212991 308.24654255 856.79598618 314.55055226 830.65987715 314.49884108 C829.38314548 314.50029452 828.1064138 314.50174796 826.79099328 314.50324545 C823.24687528 314.50713679 819.70278456 314.50481077 816.15866702 314.50146749 C812.30136006 314.49892975 808.44405727 314.50219132 804.5867509 314.50471083 C797.82355505 314.50832417 791.06036719 314.50821189 784.29717097 314.50566367 C774.23503524 314.501883 764.17290624 314.50381456 754.11077056 314.50687197 C736.1133784 314.5121463 718.11598978 314.5116766 700.11859729 314.50879306 C684.30906222 314.50627298 668.49952846 314.5056228 652.68999324 314.50681571 C651.63939033 314.50689209 650.58878742 314.50696848 649.50634806 314.50704718 C645.24007365 314.50735858 640.97379925 314.50767698 636.70752485 314.50800694 C596.61592836 314.51107037 556.52433411 314.50828931 516.43273797 314.50291004 C481.03827852 314.49819685 445.64382269 314.49856069 410.24936328 314.50337103 C370.37237544 314.5087726 330.4953896 314.51082039 290.61840144 314.50775877 C286.33064021 314.50743816 282.04287898 314.50712531 277.75511775 314.50681571 C276.6995916 314.50673663 275.64406545 314.50665755 274.55655367 314.50657608 C259.8760624 314.50552792 245.19557246 314.50642294 230.51508137 314.50880579 C179.22176618 314.51693755 127.92862815 314.4992721 76.6354351 314.37827944 C74.39654168 314.37307029 72.15764787 314.36808686 69.91875378 314.36317364 C53.21049682 314.32624623 36.50261283 314.26777339 19.7946572 314.15551618 C15.52456963 314.12714414 11.25458397 314.10681274 6.98442004 314.09469322 C-48.15179695 313.9223676 -96.739487 302.3649633 -137.25869336 262.81049994 C-138.43431836 261.60393744 -138.43431836 261.60393744 -139.63369336 260.37299994 C-140.19056836 259.86124213 -140.74744336 259.34948432 -141.32119336 258.82221869 C-167.49347343 234.18017274 -181.03601389 196.7667086 -182.5611836 161.46113471 C-183.59546533 123.2066403 -169.89911044 85.50980004 -143.64150586 57.55659369 C-141.57012213 55.35823445 -141.57012213 55.35823445 -139.59853711 52.79878119 C-136.66430842 49.17620462 -133.19452688 46.36241592 -129.63369336 43.37299994 C-128.82931836 42.68077338 -128.02494336 41.98854682 -127.19619336 41.27534369 C-115.05946683 31.03498068 -102.05937248 22.95307361 -87.63369336 16.37299994 C-86.97175977 16.06765326 -86.30982618 15.76230658 -85.62783399 15.44770697 C-77.23322006 11.62770894 -68.69932774 8.61855195 -59.82119336 6.12299994 C-58.59795362 5.77181098 -58.59795362 5.77181098 -57.35000196 5.41352728 C-38.38902816 0.34539959 -19.49610428 -0.06537952 0 0 Z " fill="#000000" transform="translate(232.63369336351752,202.62700005993247)"/>
<path d="M0 0 C-0.75 6.75 -0.75 6.75 -3 9 C-4.37606557 14.52190414 -4.21970756 20.21788735 -4.25 25.875 C-4.270625 26.83019531 -4.29125 27.78539062 -4.3125 28.76953125 C-4.34645267 34.95740517 -3.4781385 39.33481785 -1 45 C-0.68417969 45.97066406 -0.36835937 46.94132812 -0.04296875 47.94140625 C1.98172118 54.14490827 4.36432351 58.4245271 9 63 C9.825 63.86625 10.65 64.7325 11.5 65.625 C20.85224132 74.50962925 30.86902967 80.07591821 44 80.4375 C51.83004914 80.77432239 59.48909853 81.60704511 67 84 C67.33 84.66 67.66 85.32 68 86 C69.010625 86.53625 70.02125 87.0725 71.0625 87.625 C76.02456891 90.3577336 81.93506359 94.70213241 83.7265625 100.25 C83.81679688 100.8275 83.90703125 101.405 84 102 C84.66 102 85.32 102 86 102 C90.19050046 113.88514016 92.04660612 129.06941292 86.5 140.8125 C84.82421875 143.52734375 84.82421875 143.52734375 83 146 C82.40832031 146.82628906 81.81664062 147.65257812 81.20703125 148.50390625 C76.46180185 154.44278098 70.89995648 157.93953543 64 161 C63.40968994 161.26852783 62.81937988 161.53705566 62.21118164 161.8137207 C56.90516657 164.04480176 52.16034109 164.50548312 46.4375 164.4375 C45.57141113 164.43282715 44.70532227 164.4281543 43.81298828 164.42333984 C36.08832843 164.24845798 24.71450169 163.71450169 19 158 C16.6314627 157.06280898 14.28304801 156.19516685 11.875 155.375 C11.21628906 155.14554688 10.55757812 154.91609375 9.87890625 154.6796875 C8.25438774 154.11463758 6.62742029 153.55663723 5 153 C5 152.34 5 151.68 5 151 C4.11957031 150.7525 3.23914063 150.505 2.33203125 150.25 C-13.53888505 144.29608064 -25.97089683 125.16316818 -33.03515625 110.53515625 C-34.70317337 106.15239061 -35.40945925 101.63618558 -36 97 C-36.66 97 -37.32 97 -38 97 C-39.17571451 93.32589215 -39.07366746 89.83070817 -39 86 C-39.66 86 -40.32 86 -41 86 C-41 77.75 -41 69.5 -41 61 C-40.34 61 -39.68 61 -39 61 C-38.96261719 60.35933594 -38.92523437 59.71867187 -38.88671875 59.05859375 C-38.45848651 53.42440097 -37.47801765 49.14665204 -35 44 C-34.50910835 42.6918401 -34.03033401 41.37908205 -33.5625 40.0625 C-29.85147448 30.06979065 -24.14514058 20.91949079 -17 13 C-16.34 13 -15.68 13 -15 13 C-14.67 12.01 -14.34 11.02 -14 10 C-13.34 10 -12.68 10 -12 10 C-12 9.34 -12 8.68 -12 8 C-11.34 8 -10.68 8 -10 8 C-10 7.34 -10 6.68 -10 6 C-8.3203125 4.4921875 -8.3203125 4.4921875 -6.125 2.875 C-5.40570312 2.33617187 -4.68640625 1.79734375 -3.9453125 1.2421875 C-2 0 -2 0 0 0 Z " fill="#3996FB" transform="translate(782,259)"/>
<path d="M0 0 C6.27 0 12.54 0 19 0 C19 0.66 19 1.32 19 2 C20.08667969 2.07347656 20.08667969 2.07347656 21.1953125 2.1484375 C26.41458867 2.55206152 31.09813658 3.01275807 36 5 C36 5.66 36 6.32 36 7 C37.32451172 7.16822266 37.32451172 7.16822266 38.67578125 7.33984375 C54.88636459 10.55910178 72.01180568 26.71744618 81 40 C84 45.32258065 84 45.32258065 84 48 C84.66 48 85.32 48 86 48 C86.99 51.96 86.99 51.96 88 56 C88.66 56 89.32 56 90 56 C98.31292042 79.75120121 98.63157693 101.72631617 88.5625 124.9375 C87.72599255 126.63382315 86.87192624 128.32160744 86 130 C85.56042969 130.89847656 85.12085938 131.79695312 84.66796875 132.72265625 C80.49627336 140.89366293 74.94821054 148.91280691 68 155 C67.34 155 66.68 155 66 155 C65.67 155.99 65.34 156.98 65 158 C63.15234375 159.60546875 63.15234375 159.60546875 60.9375 161.1875 C60.20402344 161.71730469 59.47054687 162.24710938 58.71484375 162.79296875 C58.14894531 163.19128906 57.58304688 163.58960938 57 164 C55.74458443 160.23375329 56.62938042 158.62811066 58 155 C58.66 155 59.32 155 60 155 C61.55678329 143.18512683 62.50385749 131.24023054 58 120 C57.7215625 119.24332031 57.443125 118.48664063 57.15625 117.70703125 C52.3986892 105.79262252 42.626027 95.36585862 31 90 C31 89.34 31 88.68 31 88 C23.29832413 85.89187704 15.93632053 84.7489528 8 84.125 C-4.41172876 83.06200149 -16.23932763 79.86381239 -24.67578125 70.05078125 C-26.19118492 68.07662014 -27.60064696 66.05738215 -29 64 C-29.7425 63.05125 -30.485 62.1025 -31.25 61.125 C-36.19023854 52.30314546 -36.38953887 40.37685674 -34.27734375 30.68359375 C-30.84447405 19.57888568 -24.44140144 11.31462806 -14.125 5.6875 C-9.61967598 3.59638347 -4.88157161 2.76024476 0 2 C0 1.34 0 0.68 0 0 Z " fill="#FA3352" transform="translate(825,243)"/>
<path d="M0 0 C0.6824176 -0.0087616 1.36483521 -0.01752319 2.06793213 -0.02655029 C16.19732808 -0.15077129 30.16203925 2.5441883 40.84375 12.4453125 C50.23511502 22.592762 52.09178852 33.01700664 51.8125 46.5625 C44.8825 46.5625 37.9525 46.5625 30.8125 46.5625 C30.585625 44.9125 30.35875 43.2625 30.125 41.5625 C29.24983465 36.61174709 27.75632651 33.1809409 24.8359375 29.12109375 C23.8125 27.5625 23.8125 27.5625 23.8125 25.5625 C10.96355265 18.88104738 -3.13071171 17.39050213 -17.1875 21.5625 C-23.07605639 23.715083 -26.58799456 26.43593165 -30.1875 31.5625 C-31.92867651 36.78602952 -31.61565494 41.13531686 -30.0625 46.3125 C-27.30327682 51.09515351 -23.86571411 52.99698307 -18.67944336 54.74462891 C-9.76951878 56.87820657 -0.92681053 58.46412141 8.15432739 59.65716553 C43.10116673 64.33194333 43.10116673 64.33194333 51.8125 75.5625 C57.50401973 84.53758881 58.27323258 94.50090136 56.12890625 104.8671875 C53.08495305 114.7947693 47.65808159 122.83360596 38.41015625 127.87109375 C19.50031587 137.01401514 -6.27856701 139.07402182 -26.36328125 132.52734375 C-37.19678769 128.33155234 -46.32122843 121.93397886 -51.4375 111.25 C-54.55510137 103.61187665 -55.1875 96.82484439 -55.1875 88.5625 C-47.9275 88.5625 -40.6675 88.5625 -33.1875 88.5625 C-32.919375 90.41875 -32.65125 92.275 -32.375 94.1875 C-30.90559551 102.76238099 -28.24864023 107.5255533 -21.1875 112.5625 C-10.90367811 117.96150649 6.37914415 116.73150488 17.4765625 114.32421875 C22.83338851 112.57742766 28.03630159 109.62497945 30.8125 104.5625 C32.47638866 99.08700825 32.60270133 93.1588758 30.9375 87.6875 C25.27314269 82.02314269 16.06694385 80.75264694 8.4375 79.5 C7.4892334 79.3342749 6.5409668 79.1685498 5.56396484 78.99780273 C0.03712256 78.04697283 -5.49981288 77.22954616 -11.0559082 76.47167969 C-39.00750383 72.60577282 -39.00750383 72.60577282 -48.1875 63.5625 C-55.75594603 53.40145863 -56.61263315 42.92398105 -55.1875 30.5625 C-51.9880823 19.82159771 -44.77601179 12.29817413 -35.10546875 6.984375 C-23.3783346 1.26994818 -12.87953314 0.0719857 0 0 Z " fill="#FBFBFB" transform="translate(984.1875,280.4375)"/>
<path d="M0 0 C8.58 0 17.16 0 26 0 C31.68069445 13.66087958 37.34900288 27.32680786 43 41 C43.35042358 41.84751831 43.70084717 42.69503662 44.06188965 43.5682373 C45.95271746 48.14322983 47.83768552 52.72054507 49.71279907 57.30200195 C50.27784033 58.6805216 50.84470626 60.05829479 51.41342163 61.43530273 C52.198614 63.33766656 52.97715434 65.24261487 53.75390625 67.1484375 C54.19033447 68.21239746 54.6267627 69.27635742 55.07641602 70.37255859 C56 73 56 73 56 76 C56.66 76 57.32 76 58 76 C58.08233887 75.24364258 58.16467773 74.48728516 58.24951172 73.70800781 C59.30514581 68.49233747 61.16396901 63.6554864 63.0078125 58.671875 C63.41152069 57.56886047 63.81522888 56.46584595 64.23117065 55.32940674 C65.08784899 52.99181247 65.94705222 50.6551422 66.80859375 48.31933594 C68.10435027 44.80599017 69.39274664 41.2900207 70.6796875 37.7734375 C75.31752047 25.12675719 80.06876545 12.53522495 85 0 C92.26 0 99.52 0 107 0 C105.22704163 5.90986123 103.51201884 11.55047061 101.35546875 17.28442383 C100.98629585 18.27012611 100.98629585 18.27012611 100.60966492 19.27574158 C99.80541899 21.42070001 98.99652058 23.56386964 98.1875 25.70703125 C97.61251763 27.23741998 97.03781674 28.76791448 96.46337891 30.29850769 C94.95153792 34.32436658 93.43567914 38.34870108 91.91900635 42.3727417 C90.41605327 46.36274924 88.91723614 50.35430956 87.41796875 54.34570312 C84.78782567 61.34648697 82.14960584 68.34419245 79.50794983 75.34063911 C77.87533195 79.66806339 76.25253564 83.99897615 74.64016724 88.33398533 C73.65985796 90.96762959 72.67458159 93.59939998 71.6885376 96.23090172 C71.02980719 97.99442049 70.37778002 99.76043878 69.72607422 101.52656555 C64.04385883 116.65898571 57.52874582 131.73562709 42.375 139.3125 C32.62111119 142.13599413 22.7238119 141.59301651 13 139 C13 133.06 13 127.12 13 121 C14.95292969 121.06960938 14.95292969 121.06960938 16.9453125 121.140625 C18.67185196 121.17815847 20.39841636 121.21455693 22.125 121.25 C22.9809375 121.28351563 23.836875 121.31703125 24.71875 121.3515625 C30.33296915 121.4379351 33.62493556 120.87203131 38 117 C39.84177877 114.71934403 39.84177877 114.71934403 41.1875 112.1875 C41.67863281 111.31738281 42.16976562 110.44726562 42.67578125 109.55078125 C44.30207614 106.41812472 45.7140282 103.28637238 47 100 C46.25322998 99.99677734 45.50645996 99.99355469 44.73706055 99.99023438 C42 99 42 99 40.06567383 95.68164062 C39.42635155 94.18145116 38.80837719 92.67206149 38.20703125 91.15625 C37.69135841 89.92627289 37.69135841 89.92627289 37.16526794 88.67144775 C36.03018053 85.95454646 34.92187651 83.22748831 33.8125 80.5 C32.62388992 77.63973287 31.42838648 74.78240363 30.23294067 71.92498779 C29.40711772 69.94910696 28.58364593 67.97224196 27.76242065 65.9944458 C23.4066131 55.51401152 18.83814757 45.13030017 14.25 34.75 C11.49387195 28.50268723 8.74248175 22.25331582 6 16 C5.6908667 15.29641357 5.3817334 14.59282715 5.06323242 13.86791992 C4.19952487 11.8980728 3.34102235 9.92605083 2.484375 7.953125 C2.00194336 6.84614258 1.51951172 5.73916016 1.02246094 4.59863281 C0 2 0 2 0 0 Z " fill="#FBFBFB" transform="translate(439,315)"/>
<path d="M0 0 C7.26 0 14.52 0 22 0 C22.0093457 1.86132568 22.01869141 3.72265137 22.02832031 5.64038086 C22.06397139 11.8192032 22.11784724 17.99766114 22.18390274 24.17623043 C22.22326026 27.91901737 22.25550555 31.66157317 22.27099609 35.40454102 C22.28624091 39.02288032 22.32082211 42.64058371 22.36830902 46.25863838 C22.3830429 47.63273118 22.39103639 49.00691482 22.39188385 50.38108635 C22.4037406 59.97456234 23.19649782 67.27132161 29.3125 74.875 C35.01095118 79.38075209 40.23440072 80.53752967 47.3125 80.4375 C48.05798096 80.43065186 48.80346191 80.42380371 49.5715332 80.41674805 C57.29924194 80.19274433 62.83874729 78.02797344 69.3125 73.875 C77.9427656 64.64262285 79.29217724 53.58622147 79.4140625 41.50390625 C79.43342865 40.31522446 79.4527948 39.12654266 79.4727478 37.90184021 C79.53231089 34.1221321 79.5788363 30.34239316 79.625 26.5625 C79.66320114 23.99282559 79.70225411 21.4231637 79.7421875 18.85351562 C79.83799351 12.56911258 79.92211075 6.28464961 80 0 C87.59 0 95.18 0 103 0 C103 32.67 103 65.34 103 99 C95.74 99 88.48 99 81 99 C80.67 91.74 80.34 84.48 80 77 C78.68 79.64 77.36 82.28 76 85 C70.86491241 92.53396062 63.95535334 97.2163206 55.15966797 99.59863281 C42.80216637 101.89523383 26.71540256 102.25540437 16 95 C6.81468596 88.59725405 2.69289813 80.70328095 0 70 C-0.24050903 66.50074768 -0.24050903 66.50074768 -0.22705078 62.77954102 C-0.22734283 62.09576889 -0.22763489 61.41199677 -0.22793579 60.70750427 C-0.22655503 58.47283735 -0.21105393 56.2385141 -0.1953125 54.00390625 C-0.19157789 52.44449546 -0.18873304 50.88508232 -0.18673706 49.32566833 C-0.17913582 45.24038099 -0.15951786 41.15523801 -0.1373291 37.07000732 C-0.1167947 32.89369662 -0.10771917 28.71736237 -0.09765625 24.54101562 C-0.07626831 16.36060376 -0.04111517 8.18033653 0 0 Z " fill="#FBFBFB" transform="translate(561,315)"/>
<path d="M0 0 C7.59 0 15.18 0 23 0 C23.01401855 2.89072266 23.01401855 2.89072266 23.02832031 5.83984375 C23.0639412 12.23021068 23.11779825 18.62022389 23.18390274 25.01034546 C23.22329528 28.88207616 23.25552363 32.75358224 23.27099609 36.62548828 C23.28621752 40.36700741 23.32075837 44.10790865 23.36830902 47.84915161 C23.38306672 49.27152108 23.39103778 50.69397879 23.39188385 52.11642456 C23.4025777 61.0858799 23.48317828 68.26766393 29.96484375 75.05859375 C30.61582031 75.51363281 31.26679688 75.96867187 31.9375 76.4375 C32.91009766 77.14712891 32.91009766 77.14712891 33.90234375 77.87109375 C40.83964264 81.60457491 52.24407954 81.11508869 59.765625 79.3515625 C66.88770969 76.4379824 73.12052759 71.54935537 76.375 64.5 C76.9663427 63.01887996 77.50306463 61.51540688 78 60 C78.33773437 59.04859131 78.67546875 58.09718262 79.0234375 57.11694336 C80.53855657 51.75196432 80.35713477 46.2580216 80.4140625 40.72265625 C80.43342865 39.5561705 80.4527948 38.38968475 80.4727478 37.18785095 C80.53230104 33.47947392 80.57883229 29.77106544 80.625 26.0625 C80.66320206 23.54100244 80.70225508 21.01951762 80.7421875 18.49804688 C80.83798282 12.33213529 80.92210363 6.16616264 81 0 C88.26 0 95.52 0 103 0 C103 32.67 103 65.34 103 99 C95.74 99 88.48 99 81 99 C81 91.41 81 83.82 81 76 C79.35 79.3 77.7 82.6 76 86 C70.60236219 93.73175145 63.07995491 97.89791231 54 100 C49.65832753 100.43578256 45.36070113 100.46500442 41 100.4375 C39.8759375 100.45748047 38.751875 100.47746094 37.59375 100.49804688 C30.47707534 100.49388994 25.20536856 99.51054692 19 96 C17.989375 95.443125 16.97875 94.88625 15.9375 94.3125 C6.20023675 86.64699489 1.50427237 78.22096981 0 66 C-0.08202578 63.71673567 -0.11791067 61.43146154 -0.11352539 59.14672852 C-0.11367142 58.50197067 -0.11381744 57.85721283 -0.1139679 57.19291687 C-0.11327817 55.08821093 -0.10553042 52.98359649 -0.09765625 50.87890625 C-0.09578872 49.40917509 -0.0943664 47.93944331 -0.09336853 46.4697113 C-0.0895697 42.62120819 -0.07976221 38.77274344 -0.06866455 34.92425537 C-0.0583935 30.9892224 -0.05385876 27.05418317 -0.04882812 23.11914062 C-0.03813732 15.41274099 -0.02056216 7.70638078 0 0 Z " fill="#FBFBFB" transform="translate(320,315)"/>
<path d="M0 0 C1.83498047 -0.00483398 1.83498047 -0.00483398 3.70703125 -0.00976562 C15.4716814 0.06018635 26.49558018 2.16788349 35.8359375 9.9453125 C42.64416502 17.37561157 44.37756016 25.48806319 44.875 35.3125 C37.945 35.3125 31.015 35.3125 23.875 35.3125 C22.885 30.8575 22.885 30.8575 21.875 26.3125 C19.96940792 22.13834592 17.990622 20.32012049 13.875 18.3125 C5.66839158 15.5451553 -7.13355439 16.25194636 -15.125 19.3125 C-18.07561029 20.84430619 -20.59466064 22.25182128 -22.125 25.3125 C-22.60344581 29.81459659 -23.00985544 33.89673129 -20.5625 37.8125 C-15.34869231 41.02099704 -9.45320601 41.63770752 -3.4609375 42.2421875 C-1.99344966 42.39936733 -0.52600301 42.55693199 0.94140625 42.71484375 C3.21128322 42.95221332 5.4814004 43.18564931 7.75244141 43.41162109 C35.56665312 46.21187259 35.56665312 46.21187259 43.5234375 55.16796875 C46.3581677 58.71470865 48.64209042 61.65430837 48.875 66.3125 C48.978125 67.50875 49.08125 68.705 49.1875 69.9375 C49.05951653 77.46008416 46.00784009 85.25988114 40.84765625 90.75 C36.65357457 94.0720449 31.75586756 96.19066928 26.875 98.3125 C26.11316406 98.67730469 25.35132813 99.04210937 24.56640625 99.41796875 C16.63173993 102.05518005 7.82315672 101.52572468 -0.4375 101.5625 C-1.58412109 101.583125 -2.73074219 101.60375 -3.91210938 101.625 C-16.41483562 101.68160544 -27.34496361 99.47835563 -37.125 91.3125 C-43.37742119 84.3199963 -46.125 76.58344226 -46.125 67.3125 C-39.195 67.3125 -32.265 67.3125 -25.125 67.3125 C-24.465 70.2825 -23.805 73.2525 -23.125 76.3125 C-19.99577116 80.31095908 -16.82695435 82.47193234 -12.125 84.3125 C-8.20264503 84.77544209 -4.32084705 84.77666113 -0.375 84.75 C0.65882813 84.76998047 1.69265625 84.78996094 2.7578125 84.81054688 C9.80296811 84.80611038 15.64493261 83.7163499 21.875 80.3125 C24.78384072 77.31810515 25.08347408 74.72489986 25.3125 70.6875 C25.20871675 67.18070002 25.20871675 67.18070002 23.1875 64.375 C18.93781853 62.42244365 15.22643743 61.06210143 10.55078125 60.56640625 C9.53024658 60.45288818 8.50971191 60.33937012 7.45825195 60.22241211 C6.37890381 60.10776611 5.29955566 59.99312012 4.1875 59.875 C-3.67341871 58.98520313 -11.50685587 58.04416135 -19.3125 56.75 C-20.02301514 56.635354 -20.73353027 56.52070801 -21.46557617 56.40258789 C-29.34341261 55.05763799 -35.70861425 52.92410779 -41.3125 47 C-46.08744745 39.9199055 -47.26436339 33.81974667 -46.125 25.3125 C-43.25824435 16.34274011 -37.56661514 9.92243229 -29.3125 5.5625 C-19.63393353 0.83149677 -10.68744479 -0.14166814 0 0 Z " fill="#FAFAFA" transform="translate(253.125,313.6875)"/>
<path d="M0 0 C2.5625 1.4375 2.5625 1.4375 4 4 C4.11571928 7.10237877 3.82115958 10.00450239 3 13 C0.6079161 15.3920839 -0.15138886 15.34576948 -3.4375 15.4375 C-7.67141089 15.32858911 -7.67141089 15.32858911 -10.0625 12.9375 C-11.19461183 9.39021627 -11.41135987 6.70223881 -11 3 C-8.82372079 -1.21654098 -4.18326252 -0.7224108 0 0 Z " fill="#050F19" transform="translate(835,359)"/>
<path d="M0 0 C2.375 1.5625 2.375 1.5625 4 4 C4.33094958 7.77282526 4.19754817 10.40735548 3 14 C0 16 0 16 -3.5 15.875 C-7 15 -7 15 -8.9375 13.375 C-10.43699866 10.02317947 -10.45377473 7.63019782 -10 4 C-7.26646839 -0.10029741 -4.80388991 -0.80064832 0 0 Z " fill="#0C0204" transform="translate(849,277)"/>
<path d="M0 0 C3 2 3 2 3.9375 5.875 C4.19050261 8.90003119 4.12389716 9.78452669 2.5625 12.5 C-1.21330739 14.71022872 -3.64674601 14.41459562 -8 14 C-8.99 13.34 -9.98 12.68 -11 12 C-11.38660996 7.8246124 -11.43648441 4.51936637 -9 1 C-5.98131566 -0.50934217 -3.32702771 -0.17510672 0 0 Z " fill="#040B13" transform="translate(835,389)"/>
<path d="M0 0 C2.8125 1.625 2.8125 1.625 5 4 C5.625 6.9375 5.625 6.9375 5 10 C2.51877621 13.35694984 1.05634831 14.78441871 -3.0625 15.625 C-6 15 -6 15 -8.375 12.875 C-10.24104227 9.5735406 -10.41478449 7.73306042 -10 4 C-8.0084418 0.0168836 -4.15755558 -0.60842277 0 0 Z " fill="#030910" transform="translate(849,374)"/>
<path d="M0 0 C7.21153846 -0.48076923 7.21153846 -0.48076923 10.5625 1.5625 C12 4 12 4 11.9375 7.5625 C10.59701493 12.47761194 10.59701493 12.47761194 8 14 C4.58207187 14.44581671 2.41200639 14.15564686 -0.8125 12.9375 C-3 11 -3 11 -3.8125 7.3125 C-3.874375 6.219375 -3.93625 5.12625 -4 4 C-3.34 4 -2.68 4 -2 4 C-1.34 2.68 -0.68 1.36 0 0 Z " fill="#130306" transform="translate(827,263)"/>
<path d="M0 0 C2.5625 1.5625 2.5625 1.5625 4 4 C3.93957505 7.44422213 3.60093625 9.90417507 1.9375 12.9375 C-1.26063137 14.69131398 -4.45325707 14.6502362 -8 14 C-10 12.4375 -10 12.4375 -11 10 C-11.35773097 6.60155579 -11.58904125 4.14126742 -10 1.0625 C-6.75462393 -0.66160604 -3.53203487 -0.62413468 0 0 Z " fill="#0F0305" transform="translate(835,293)"/>
<path d="M0 0 C3 2 3 2 3.8125 5.875 C4.10896376 9.14203063 4.05640468 11.29420437 2 14 C-0.84083641 15.42041821 -2.85477278 15.31452272 -6 15 C-8.375 13.5 -8.375 13.5 -10 11 C-10.63194725 7.47103617 -10.65983409 4.24204065 -8.9375 1 C-5.90246787 -0.56646819 -3.34866332 -0.2989878 0 0 Z " fill="#03090F" transform="translate(819,374)"/>
<path d="M0 0 C2.375 1.0625 2.375 1.0625 4 3 C4.45903072 6.60666998 4.38351565 9.06518061 3 12.4375 C-0.18960988 14.92938272 -3.03456915 14.26002825 -7 14 C-7 13.34 -7 12.68 -7 12 C-7.66 12 -8.32 12 -9 12 C-10.54163175 8.9167365 -10.29747535 6.39121901 -10 3 C-7.14353095 -0.40579002 -4.27097064 -0.53387133 0 0 Z " fill="#060102" transform="translate(819,278)"/>
<path d="M0 0 C-0.75 6.75 -0.75 6.75 -3 9 C-4.37606557 14.52190414 -4.21970756 20.21788735 -4.25 25.875 C-4.270625 26.83019531 -4.29125 27.78539062 -4.3125 28.76953125 C-4.34637824 34.9438405 -3.4532662 39.34054703 -1 45 C-0.60919203 46.98956785 -0.25149128 48.98806977 0 51 C-3.55892085 49.22053957 -4.07923184 45.16825378 -5.30493164 41.56201172 C-8.90420754 29.84629365 -8.7486764 14.96596254 -3 4 C-3.66 3.67 -4.32 3.34 -5 3 C-2.25 0 -2.25 0 0 0 Z " fill="#20558F" transform="translate(782,259)"/>
<path d="M0 0 C0.33 0 0.66 0 1 0 C0.8595017 2.7920301 0.71284617 5.58349796 0.5625 8.375 C0.52318359 9.1690625 0.48386719 9.963125 0.44335938 10.78125 C0.11328125 16.7734375 0.11328125 16.7734375 -1 19 C-1.66 19 -2.32 19 -3 19 C-3 16.03 -3 13.06 -3 10 C-2.34 10 -1.68 10 -1 10 C-0.67 6.7 -0.34 3.4 0 0 Z " fill="#286BB2" transform="translate(744,310)"/>
<path d="M0 0 C0.66 0 1.32 0 2 0 C4.59227518 4.86051596 4.18689553 9.65271133 4 15 C1.87000003 11.20960634 1.83297544 8.34263862 2 4 C1.34 4 0.68 4 0 4 C0 2.68 0 1.36 0 0 Z " fill="#2667AC" transform="translate(741,341)"/>
<path d="M0 0 C2.64 0 5.28 0 8 0 C8 0.66 8 1.32 8 2 C9.32 2.33 10.64 2.66 12 3 C10.56260487 3.02712066 9.12506137 3.04645067 7.6875 3.0625 C6.48673828 3.07990234 6.48673828 3.07990234 5.26171875 3.09765625 C3 3 3 3 0 2 C0 1.34 0 0.68 0 0 Z " fill="#B3253B" transform="translate(836,243)"/>
<path d="M0 0 C0 0.33 0 0.66 0 1 C-1.65 1 -3.3 1 -5 1 C-5.66 2.32 -6.32 3.64 -7 5 C-7.66 5 -8.32 5 -9 5 C-9 6.98 -9 8.96 -9 11 C-9.33 11 -9.66 11 -10 11 C-10.48275862 4.72413793 -10.48275862 4.72413793 -8.375 1.5625 C-5.397402 -0.39644605 -3.49644963 -0.31785906 0 0 Z " fill="#55111C" transform="translate(849,277)"/>
<path d="M0 0 C0 0.33 0 0.66 0 1 C-3 2 -6 3 -9 4 C-9 5.98 -9 7.96 -9 10 C-9.33 10 -9.66 10 -10 10 C-10.48468708 3.57789614 -10.48468708 3.57789614 -8.375 1.0625 C-5.43969547 -0.25066255 -3.18136394 -0.21691118 0 0 Z " fill="#25070C" transform="translate(819,278)"/>
<path d="M0 0 C-0.25561323 2.3431213 -0.59270772 4.67843403 -1 7 C-1.99 7.495 -1.99 7.495 -3 8 C-3 6.68 -3 5.36 -3 4 C-3.66 3.67 -4.32 3.34 -5 3 C-2.25 0 -2.25 0 0 0 Z " fill="#215994" transform="translate(782,259)"/>
</svg>
